<svg xmlns="http://www.w3.org/2000/svg" viewBox="0 0 893.12 406.14"><defs><style>.cls-1{fill:#24a6e4;}.cls-2{fill:#86c447;}.cls-3{fill:#717576;}</style></defs><g id="Capa_2" data-name="Capa 2"><g id="Capa_1-2" data-name="Capa 1"><path class="cls-1" d="M533.22,400.4H295.62C220.28,400.4,159,339.1,159,263.76V248.64a20,20,0,0,1,40,0v15.12a96.75,96.75,0,0,0,96.64,96.64h237.6a20,20,0,0,1,0,40Z"/><path class="cls-1" d="M886.74,289.68c-18.72,51.12-43.92,57.6-52.92,55.8S809.7,330,823.74,315.24,862.62,267.36,851.1,231s-38.89-71.48-93.24-70.56c-42.48.72-41.76,24.12-83.16-26.64-51.09-62.64-145.44-50-183.1-11.76-39.9,40.56-42.1,62.8-56.26,69.6H414.73c-19.79-10.86-28.9-56.76-91.75-56.76-61.92,0-65.16,53.28-91.44,27-17.48-17.48,3.6-34.2,38.7-69.3,14.62-14.62,57.15-60,57.15-60s78.39,97.23,94.23,102.63c0,0,39.24-46.8,87.84-76s70.2-46.44,70.2-46.44S640.78,59,665,74.4c40.24,25.69,54.36,46.8,62.64,47.52L780.9,33.36,877,188.16S905.46,238.56,886.74,289.68Z"/><circle class="cls-2" cx="193.92" cy="193.92" r="28.26"/><path class="cls-2" d="M129.66,211.92a18,18,0,0,1-18-18,82.35,82.35,0,0,1,82.26-82.26,18,18,0,0,1,0,36,46.31,46.31,0,0,0-46.26,46.26A18,18,0,0,1,129.66,211.92Z"/><path class="cls-2" d="M72.72,211.92a18,18,0,0,1-18-18c0-76.76,62.45-139.2,139.2-139.2a18,18,0,0,1,0,36,103.32,103.32,0,0,0-103.2,103.2A18,18,0,0,1,72.72,211.92Z"/><path class="cls-2" d="M18,211.92a18,18,0,0,1-18-18C0,87,87,0,193.92,0a18,18,0,0,1,0,36C106.84,36,36,106.84,36,193.92A18,18,0,0,1,18,211.92Z"/><polygon class="cls-1" points="377.58 206.2 377.58 325.88 429.18 325.88 429.18 307.64 395.82 307.64 395.82 275.36 420.06 275.36 420.06 257.12 395.82 257.12 395.82 224.44 429.18 224.44 429.18 206.2 377.58 206.2"/><polygon class="cls-1" points="455.94 206.2 437.7 206.2 437.7 325.08 485.94 325.08 485.94 306.84 455.94 306.84 455.94 206.2"/><rect class="cls-1" x="494.58" y="206.2" width="18.24" height="118.88"/><polygon class="cls-1" points="337.47 206.2 322.85 274.28 308.23 206.2 282.06 206.2 282.06 325.08 300.3 325.08 300.3 256.16 315.1 325.08 330.59 325.08 346.98 248.76 346.98 325.08 365.22 325.08 365.22 206.2 337.47 206.2"/><polygon class="cls-2" points="576.71 284.36 576.61 283.99 554.46 206.7 533.27 206.7 533.27 325.58 551.51 325.58 551.51 247.93 573.77 325.58 594.95 325.58 594.95 206.7 576.71 206.7 576.71 284.36"/><polygon class="cls-2" points="723.3 206.7 666.42 206.7 666.42 224.94 685.74 224.94 685.74 325.58 703.98 325.58 703.98 224.94 723.3 224.94 723.3 206.7"/><polygon class="cls-2" points="607.62 206.5 607.62 325.58 658.14 325.58 658.14 306.94 625.86 306.94 625.86 275.3 648.9 275.3 648.9 256.66 625.86 256.66 625.86 225.14 658.14 225.14 658.14 206.5 607.62 206.5"/><rect class="cls-3" x="690.18" y="345.74" width="5.94" height="60.4"/><polygon class="cls-3" points="647.48 394.27 634.76 345.74 628.54 345.74 615.82 394.27 603.1 345.74 596.88 345.74 612.71 406.14 618.93 406.14 631.65 357.6 644.37 406.14 650.59 406.14 666.42 345.74 660.2 345.74 647.48 394.27"/><rect class="cls-3" x="781.26" y="345.74" width="5.94" height="60.4"/><polygon class="cls-3" points="725.1 345.74 725.1 351.68 725.1 372.97 725.1 378.91 725.1 406.14 731.04 406.14 731.04 378.91 753.18 378.91 753.18 372.97 731.04 372.97 731.04 351.68 755.22 351.68 755.22 345.74 731.04 345.74 725.1 345.74"/></g></g></svg>